<svg xmlns="http://www.w3.org/2000/svg" viewBox="0 0 100 100">
  <defs>
    <linearGradient id="grad" x1="0%" y1="0%" x2="100%" y2="100%">
      <stop offset="0%" style="stop-color:#ff6b35;stop-opacity:1" />
      <stop offset="100%" style="stop-color:#f7931e;stop-opacity:1" />
    </linearGradient>
  </defs>
  <!-- Privacy logo shape with keyhole -->
  <path d="M 30 20 L 30 80 L 35 85 L 40 80 C 40 80 40 65 40 60 C 40 40 55 30 70 30 C 85 30 95 40 95 55 C 95 70 85 80 70 80 L 70 85 L 75 80 C 75 80 100 80 100 55 C 100 30 85 15 60 15 C 40 15 30 25 30 20 Z" fill="url(#grad)" stroke="none"/>
  <!-- Keyhole -->
  <circle cx="70" cy="50" r="8" fill="#000"/>
  <rect x="67" y="50" width="6" height="12" fill="#000"/>
</svg>

